<svg width="26" height="23" viewBox="0 0 26 23" fill="none" xmlns="http://www.w3.org/2000/svg">
<path d="M1.7874 9.97088C8.76671 6.86627 13.4206 4.81947 15.7493 3.83046C22.3979 1.00696 23.7795 0.516458 24.68 0.500158C24.878 0.496758 25.3208 0.546858 25.6077 0.784458C25.8499 0.985159 25.9165 1.25626 25.9484 1.44646C25.9803 1.63676 26.02 2.07016 25.9884 2.40876C25.6281 6.27397 24.0692 15.6539 23.276 19.983C22.9404 21.8148 22.2796 22.429 21.6399 22.4891C20.2496 22.6197 19.1938 21.551 17.8473 20.6497C15.7401 19.2395 14.5498 18.3615 12.5044 16.9854C10.1407 15.395 11.673 14.5209 13.0201 13.0923C13.3726 12.7185 19.4983 7.02947 19.6169 6.51347C19.6317 6.44887 19.6455 6.20827 19.5055 6.08127C19.3655 5.95427 19.1589 5.99767 19.0098 6.03217C18.7985 6.08117 15.4323 8.35287 8.91131 12.8473C7.95581 13.5172 7.0904 13.8435 6.315 13.8264C5.4602 13.8076 3.8159 13.333 2.5935 12.9273C1.0942 12.4296 -0.0974619 12.1666 0.00629815 11.3215C0.0603482 10.8813 0.654029 10.4311 1.7874 9.97088Z" fill="#333333"/>
</svg>
