<svg width="26" height="29" viewBox="0 0 26 29" fill="none" xmlns="http://www.w3.org/2000/svg">
<path d="M12.6375 5.52444C12.1888 5.52444 12.1888 6.22381 12.6375 6.22963C16.1192 6.25644 18.9866 8.68325 19.0181 13.1347C19.0181 13.6045 19.7058 13.5987 19.7 13.1289C19.6627 8.3324 16.5307 5.55125 12.6375 5.52444Z" fill="#333333"/>
<path d="M17.2172 12.3969C17.2067 12.8608 17.8933 12.883 17.8991 12.4132C17.9562 9.76844 16.3244 7.58874 13.2623 7.36028C12.8135 7.32764 12.7669 8.03284 13.2145 8.06548C15.8709 8.26713 17.2708 10.0808 17.2172 12.3969ZM16.4829 15.4054C15.9071 15.072 15.3208 15.2795 15.0783 15.607L14.5713 16.2632C14.3125 16.5966 13.8323 16.5523 13.8323 16.5523C10.3191 15.6233 9.37963 11.9458 9.37963 11.9458C9.37963 11.9458 9.3365 11.4493 9.65937 11.1812L10.2935 10.6566C10.6105 10.4049 10.811 9.79875 10.4881 9.20312C9.6687 7.72862 8.65695 6.57932 8.75019 6.69588C8.44014 6.30773 7.97389 6.22031 7.489 6.48257H7.47851C6.47025 7.07237 5.36641 8.17621 5.7196 9.31269C5.7837 9.42925 7.29784 14.2211 10.959 17.2167C12.6177 18.5817 15.2427 19.9804 16.357 20.3021L16.3663 20.3184C17.4643 20.6844 18.532 19.5375 19.102 18.4989V18.4907C19.355 17.9884 19.271 17.5128 18.9015 17.2016C18.2476 16.564 17.2592 15.8588 16.4829 15.4054Z" fill="#333333"/>
<path d="M13.7414 9.96193C14.8615 10.0272 15.4047 10.6123 15.463 11.8141C15.484 12.2838 16.1658 12.2512 16.1437 11.7815C16.0703 10.2125 15.252 9.33833 13.7775 9.25674C13.3287 9.22993 13.2879 9.93513 13.7414 9.96193Z" fill="#333333"/>
<path d="M12.6375 5.52444C12.1888 5.52444 12.1888 6.22381 12.6375 6.22963C14.4675 6.24362 16.1274 6.92084 17.2953 8.20535L17.7837 7.71696C16.498 6.3054 14.6715 5.53843 12.6375 5.52444ZM13.232 7.35912C12.8112 7.35912 12.7762 8.03284 13.2133 8.06548C14.4897 8.16222 15.477 8.6308 16.1507 9.34999L16.6402 8.86043C15.8581 8.02352 14.7228 7.46985 13.2611 7.36028C13.2518 7.35912 13.2425 7.35912 13.232 7.35912ZM8.03334 6.33221C7.85966 6.33221 7.6755 6.38117 7.489 6.48257H7.47851C6.47025 7.07237 5.36641 8.17621 5.7196 9.31269C5.78137 9.43158 7.04024 13.1907 9.58128 15.9206L10.8495 14.6524C9.7398 13.3574 9.37963 11.9458 9.37963 11.9458C9.37963 11.9458 9.3365 11.4493 9.65937 11.1812L10.2935 10.6566C10.6105 10.4049 10.811 9.79875 10.4881 9.20312C9.6687 7.72862 8.65695 6.57932 8.75019 6.69588C8.55903 6.4581 8.30959 6.33221 8.03334 6.33221ZM13.7542 9.25557C13.3287 9.25557 13.2973 9.93512 13.7425 9.96077C14.3148 9.99457 14.7368 10.1636 15.02 10.4818L15.5131 9.98874C15.1145 9.54698 14.5328 9.29753 13.7798 9.25674C13.7705 9.25674 13.7623 9.25557 13.7542 9.25557Z" fill="#333333"/>
<path d="M25.3812 16.7096C26.2158 9.68443 24.9802 5.24926 22.7516 3.24324L22.7527 3.24091C19.1638 -0.174345 7.01693 -0.700038 2.70532 3.39593C0.771562 5.39613 0.0908434 8.32882 0.016244 11.9609C-0.0571897 15.5941 -0.146942 22.4013 6.19517 24.2476H6.201L6.19633 27.0661C6.19633 27.0661 6.15321 28.2084 6.88172 28.438C7.71163 28.7073 8.0858 28.1897 10.6898 25.0775C15.0317 25.454 18.363 24.5915 18.743 24.4668C19.6196 24.1707 24.5792 23.5144 25.3812 16.7096ZM11.1176 23.0937C11.1176 23.0937 8.37137 26.5182 7.51581 27.4099C7.23606 27.699 6.92951 27.6722 6.93417 27.0987C6.93417 26.7222 6.95632 22.4176 6.95632 22.4176C1.57933 20.8767 1.89638 15.0812 1.95466 12.0483C2.01294 9.01653 2.56777 6.53144 4.20546 4.85878C7.97856 1.31881 18.6288 2.11026 21.3423 4.66063C24.7646 7.69589 23.4894 16.3144 23.4859 16.1944C22.804 21.8756 18.7861 22.2358 18.046 22.4817C17.7301 22.5854 14.7986 23.3396 11.1176 23.0937Z" fill="#333333"/>
<path d="M12.3788 0.518213C10.3284 0.525206 5.40838 0.826918 2.70532 3.39593C0.771562 5.39613 0.0908434 8.32882 0.016244 11.9609C-0.0571897 15.5941 -0.146942 22.4013 6.19517 24.2476H6.201L6.19633 27.0661C6.19633 27.0661 6.15321 28.2084 6.88172 28.438C6.97263 28.4671 7.06005 28.4848 7.14398 28.4906H7.27453C7.77574 28.4557 7.97157 28.3261 10.6898 25.0775C11.2726 25.1277 11.8379 25.157 12.3788 25.1675V23.1416C11.9708 23.1381 11.55 23.1228 11.1176 23.0937C11.1176 23.0937 8.37137 26.5182 7.51581 27.4099C7.2279 27.7083 6.93533 27.6572 6.93417 27.1152C6.93417 27.1094 6.93417 27.1045 6.93417 27.0987C6.93417 26.9822 6.95748 22.1064 6.95632 22.4176C2.27054 21.0748 1.86374 16.7655 1.95466 12.0483C2.01294 9.01653 2.56777 6.53144 4.20546 4.85878C6.31639 2.87723 9.69085 2.59884 12.3788 2.4881V0.518213Z" fill="#333333"/>
</svg>
