<svg width="27" height="29" viewBox="0 0 27 29" fill="none" xmlns="http://www.w3.org/2000/svg">
<path d="M23.1008 4.5865C20.5994 1.9378 17.1417 0.5 13.6103 0.5C6.10628 0.5 0.0735936 6.7811 0.147187 14.4243C0.147187 16.8459 0.80933 19.1919 1.91284 21.3108L0 28.5L7.13629 26.6081C9.12262 27.7432 11.3297 28.273 13.5367 28.273C20.9673 28.273 27 21.9919 27 14.3486C27 10.6405 25.6022 7.1595 23.1008 4.5865ZM13.6103 25.927C11.624 25.927 9.63758 25.3973 7.94552 24.3378L7.50406 24.1108L3.23712 25.2459L4.34063 20.9324L4.04635 20.4784C0.809329 15.1054 2.3542 7.9919 7.65125 4.6622C12.9482 1.33243 19.7902 2.9216 23.0272 8.3703C26.2643 13.8189 24.7194 20.8568 19.4223 24.1865C17.7303 25.3216 15.6703 25.927 13.6103 25.927ZM20.0845 17.527L19.2753 17.1486C19.2753 17.1486 18.0981 16.6189 17.3624 16.2405C17.2888 16.2405 17.2152 16.1649 17.1417 16.1649C16.921 16.1649 16.7739 16.2405 16.6267 16.3162C16.6267 16.3162 16.5532 16.3919 15.5232 17.6027C15.4496 17.7541 15.3025 17.8297 15.1553 17.8297H15.0817C15.0082 17.8297 14.861 17.7541 14.7874 17.6784L14.4197 17.527C13.6103 17.1486 12.8747 16.6946 12.2862 16.0892C12.139 15.9378 11.9183 15.7865 11.7711 15.6351C11.2561 15.1054 10.7412 14.5 10.3733 13.8189L10.2997 13.6676C10.2261 13.5919 10.2261 13.5162 10.1526 13.3649C10.1526 13.2135 10.1526 13.0622 10.2261 12.9865C10.2261 12.9865 10.5204 12.6081 10.7412 12.3811C10.8883 12.2297 10.9619 12.0027 11.1091 11.8514C11.2561 11.6243 11.3297 11.3216 11.2561 11.0946C11.1825 10.7162 10.2997 8.673 10.079 8.2189C9.93185 7.9919 9.78477 7.9162 9.56408 7.8405H9.3433C9.19622 7.8405 8.97553 7.8405 8.75476 7.8405C8.60767 7.8405 8.46048 7.9162 8.31339 7.9162L8.2398 7.9919C8.09261 8.0676 7.94552 8.2189 7.79834 8.2946C7.65125 8.4459 7.57765 8.5973 7.43056 8.7486C6.91551 9.4297 6.62124 10.2622 6.62124 11.0946C6.62124 11.7 6.76842 12.3054 6.9891 12.8351L7.0627 13.0622C7.72484 14.5 8.60767 15.7865 9.78477 16.9216L10.079 17.2243C10.2997 17.4514 10.5204 17.6027 10.6676 17.8297C12.2126 19.1919 13.9782 20.1757 15.9645 20.7054C16.1853 20.7811 16.4796 20.7811 16.7003 20.8568C16.921 20.8568 17.2152 20.8568 17.436 20.8568C17.8038 20.8568 18.2452 20.7054 18.5395 20.5541C18.7602 20.4027 18.9074 20.4027 19.0545 20.2514L19.2017 20.1C19.3488 19.9486 19.4959 19.873 19.643 19.7216C19.7902 19.5703 19.9373 19.4189 20.0109 19.2676C20.1581 18.9649 20.2316 18.5865 20.3052 18.2081C20.3052 18.0568 20.3052 17.8297 20.3052 17.6784C20.3052 17.6784 20.2316 17.6027 20.0845 17.527Z" fill="#333333"/>
</svg>
